# xmcd
#
# Track frame offsets: 
#        183
#        16033
#        52463
#        73435
#        105508
#        172793
#
# Disc length: 2797 seconds
#
# Revision: 14
# Processed by: cddbd v1.5.2PL0 Copyright (c) Steve Scherf et al.
# Submitted via: ExactAudioCopy v1.2
#
DISCID=4c0aeb06
DTITLE=Philip Glass - Koyaanisqatsi
DYEAR=1983
DGENRE=Other
TTITLE0=Koyaanisqatsi
TTITLE1=Vessel
TTITLE2=Cloudscape
TTITLE3=Pruit Igoe
TTITLE4=The Grid
TTITLE5=Prophecies
EXTD=YEAR: 1983
EXTT0=
EXTT1=
EXTT2=
EXTT3=
EXTT4=
EXTT5=
PLAYORDER=
